{
.appVersion = "1075";
copyright = "Copyright 2016 The Rounded M+ Project Authors.";
customParameters = (
{
name = vendorID;
value = "M+  ";
},
{
name = panose;
value = (
2,
11,
7,
2,
2,
2,
3,
2,
2,
7
);
},
{
name = unicodeRanges;
value = (
0,
1,
2,
3,
4,
5,
6,
7,
9,
11,
24,
29,
30,
31,
32,
33,
35,
36,
37,
38,
39,
40,
42,
43,
44,
45,
46,
47,
48,
49,
50,
54,
57,
59,
61,
62,
65,
68,
89
);
},
{
name = codePageRanges;
value = (
1252,
1250,
1251,
1253,
1254,
1255,
1257,
1258,
932,
950,
869,
866,
865,
863,
862,
861,
860,
857,
855,
852,
775,
737,
850,
437
);
},
{
name = glyphOrder;
value = (
.notdef,
space
);
}
);
date = "2015-05-28 17:06:34 +0000";
familyName = "Yaku Han RPs";
fontMaster = (
{
ascender = 860;
capHeight = 700;
customParameters = (
{
name = typoAscender;
value = 860;
},
{
name = typoDescender;
value = -140;
},
{
name = typoLineGap;
value = 90;
},
{
name = winAscent;
value = 1075;
},
{
name = winDescent;
value = 320;
},
{
name = hheaAscender;
value = 1075;
},
{
name = hheaDescender;
value = -320;
},
{
name = underlinePosition;
value = -150;
}
);
descender = -140;
id = "D3FC7C9C-FD4B-4DFF-A973-70890FA8A2F9";
weight = Bold;
weightValue = 700;
widthValue = 5;
xHeight = 500;
}
);
glyphs = (
{
glyphname = ellipsis;
lastChange = "2017-12-21 08:22:18 +0000";
layers = (
{
layerId = "D3FC7C9C-FD4B-4DFF-A973-70890FA8A2F9";
paths = (
{
closed = 1;
nodes = (
"887 275 OFFCURVE",
"913 301 OFFCURVE",
"913 332 CURVE SMOOTH",
"913 388 LINE SMOOTH",
"913 419 OFFCURVE",
"887 445 OFFCURVE",
"856 445 CURVE SMOOTH",
"810 445 LINE SMOOTH",
"779 445 OFFCURVE",
"753 419 OFFCURVE",
"753 388 CURVE SMOOTH",
"753 332 LINE SMOOTH",
"753 301 OFFCURVE",
"779 275 OFFCURVE",
"810 275 CURVE SMOOTH",
"856 275 LINE SMOOTH"
);
},
{
closed = 1;
nodes = (
"554 275 OFFCURVE",
"580 301 OFFCURVE",
"580 332 CURVE SMOOTH",
"580 388 LINE SMOOTH",
"580 419 OFFCURVE",
"554 445 OFFCURVE",
"523 445 CURVE SMOOTH",
"477 445 LINE SMOOTH",
"446 445 OFFCURVE",
"420 419 OFFCURVE",
"420 388 CURVE SMOOTH",
"420 332 LINE SMOOTH",
"420 301 OFFCURVE",
"446 275 OFFCURVE",
"477 275 CURVE SMOOTH",
"523 275 LINE SMOOTH"
);
},
{
closed = 1;
nodes = (
"221 275 OFFCURVE",
"247 301 OFFCURVE",
"247 332 CURVE SMOOTH",
"247 388 LINE SMOOTH",
"247 419 OFFCURVE",
"221 445 OFFCURVE",
"190 445 CURVE SMOOTH",
"144 445 LINE SMOOTH",
"113 445 OFFCURVE",
"87 419 OFFCURVE",
"87 388 CURVE SMOOTH",
"87 332 LINE SMOOTH",
"87 301 OFFCURVE",
"113 275 OFFCURVE",
"144 275 CURVE SMOOTH",
"190 275 LINE SMOOTH"
);
}
);
vertWidth = 1000;
width = 1000;
}
);
note = ellipsis;
unicode = 2026;
},
{
glyphname = anglebracketleft;
lastChange = "2017-12-21 08:25:29 +0000";
layers = (
{
layerId = "D3FC7C9C-FD4B-4DFF-A973-70890FA8A2F9";
paths = (
{
closed = 1;
nodes = (
"444 -94 OFFCURVE",
"472 -110 OFFCURVE",
"510 -110 CURVE SMOOTH",
"533 -110 LINE SMOOTH",
"558 -110 OFFCURVE",
"574 -82 OFFCURVE",
"562 -61 CURVE SMOOTH",
"327 353 LINE SMOOTH",
"324 358 OFFCURVE",
"324 362 OFFCURVE",
"327 367 CURVE SMOOTH",
"562 781 LINE SMOOTH",
"574 802 OFFCURVE",
"558 830 OFFCURVE",
"533 830 CURVE SMOOTH",
"510 830 LINE SMOOTH",
"472 830 OFFCURVE",
"444 814 OFFCURVE",
"425 781 CURVE SMOOTH",
"214 409 LINE SMOOTH",
"195 376 OFFCURVE",
"195 344 OFFCURVE",
"214 311 CURVE SMOOTH",
"425 -61 LINE SMOOTH"
);
}
);
vertWidth = 1000;
width = 596;
}
);
note = uni3008;
unicode = 3008;
},
{
glyphname = anglebracketright;
lastChange = "2017-12-21 08:25:42 +0000";
layers = (
{
layerId = "D3FC7C9C-FD4B-4DFF-A973-70890FA8A2F9";
paths = (
{
closed = 1;
nodes = (
"38 830 OFFCURVE",
"22 802 OFFCURVE",
"34 781 CURVE SMOOTH",
"269 367 LINE SMOOTH",
"272 362 OFFCURVE",
"272 358 OFFCURVE",
"269 353 CURVE SMOOTH",
"34 -61 LINE SMOOTH",
"22 -82 OFFCURVE",
"38 -110 OFFCURVE",
"63 -110 CURVE SMOOTH",
"86 -110 LINE SMOOTH",
"124 -110 OFFCURVE",
"152 -94 OFFCURVE",
"171 -61 CURVE SMOOTH",
"382 311 LINE SMOOTH",
"401 344 OFFCURVE",
"401 376 OFFCURVE",
"382 409 CURVE SMOOTH",
"171 781 LINE SMOOTH",
"152 814 OFFCURVE",
"124 830 OFFCURVE",
"86 830 CURVE SMOOTH",
"63 830 LINE SMOOTH"
);
}
);
vertWidth = 1000;
width = 596;
}
);
note = uni3009;
unicode = 3009;
},
{
glyphname = blacklenticularbracketleft;
lastChange = "2017-12-21 08:25:29 +0000";
layers = (
{
layerId = "D3FC7C9C-FD4B-4DFF-A973-70890FA8A2F9";
paths = (
{
closed = 1;
nodes = (
"481 -110 OFFCURVE",
"492 -84 OFFCURVE",
"477 -68 CURVE",
"374 51 OFFCURVE",
"317 204 OFFCURVE",
"317 360 CURVE SMOOTH",
"317 516 OFFCURVE",
"374 669 OFFCURVE",
"477 788 CURVE",
"492 804 OFFCURVE",
"481 830 OFFCURVE",
"460 830 CURVE SMOOTH",
"257 830 LINE SMOOTH",
"226 830 OFFCURVE",
"200 804 OFFCURVE",
"200 773 CURVE SMOOTH",
"200 -53 LINE SMOOTH",
"200 -84 OFFCURVE",
"226 -110 OFFCURVE",
"257 -110 CURVE SMOOTH",
"460 -110 LINE SMOOTH"
);
}
);
vertWidth = 1000;
width = 514;
}
);
note = uni3010;
unicode = 3010;
},
{
glyphname = blacklenticularbracketright;
lastChange = "2017-12-21 08:25:42 +0000";
layers = (
{
layerId = "D3FC7C9C-FD4B-4DFF-A973-70890FA8A2F9";
paths = (
{
closed = 1;
nodes = (
"288 -110 OFFCURVE",
"314 -84 OFFCURVE",
"314 -53 CURVE SMOOTH",
"314 773 LINE SMOOTH",
"314 804 OFFCURVE",
"288 830 OFFCURVE",
"257 830 CURVE SMOOTH",
"54 830 LINE SMOOTH",
"33 830 OFFCURVE",
"22 804 OFFCURVE",
"37 788 CURVE",
"140 669 OFFCURVE",
"197 516 OFFCURVE",
"197 360 CURVE SMOOTH",
"197 204 OFFCURVE",
"140 51 OFFCURVE",
"37 -68 CURVE",
"22 -84 OFFCURVE",
"33 -110 OFFCURVE",
"54 -110 CURVE SMOOTH",
"257 -110 LINE SMOOTH"
);
}
);
vertWidth = 1000;
width = 514;
}
);
note = uni3011;
unicode = 3011;
},
{
glyphname = braceleft.full;
lastChange = "2017-12-21 08:25:29 +0000";
layers = (
{
layerId = "D3FC7C9C-FD4B-4DFF-A973-70890FA8A2F9";
paths = (
{
closed = 1;
nodes = (
"451 393 OFFCURVE",
"480 436 OFFCURVE",
"480 523 CURVE SMOOTH",
"480 633 LINE SMOOTH",
"480 721 OFFCURVE",
"494 733 OFFCURVE",
"573 733 CURVE SMOOTH",
"648 733 LINE SMOOTH",
"675 733 OFFCURVE",
"696 755 OFFCURVE",
"696 782 CURVE SMOOTH",
"696 809 OFFCURVE",
"675 830 OFFCURVE",
"648 830 CURVE SMOOTH",
"510 830 LINE SMOOTH",
"401 830 OFFCURVE",
"356 785 OFFCURVE",
"356 670 CURVE SMOOTH",
"356 528 LINE SMOOTH",
"356 445 OFFCURVE",
"330 412 OFFCURVE",
"270 412 CURVE SMOOTH",
"251 412 LINE SMOOTH",
"222 412 OFFCURVE",
"200 389 OFFCURVE",
"200 360 CURVE SMOOTH",
"200 331 OFFCURVE",
"222 308 OFFCURVE",
"251 308 CURVE SMOOTH",
"270 308 LINE SMOOTH",
"330 308 OFFCURVE",
"356 275 OFFCURVE",
"356 192 CURVE SMOOTH",
"356 50 LINE SMOOTH",
"356 -65 OFFCURVE",
"401 -110 OFFCURVE",
"510 -110 CURVE SMOOTH",
"648 -110 LINE SMOOTH",
"675 -110 OFFCURVE",
"696 -89 OFFCURVE",
"696 -62 CURVE SMOOTH",
"696 -35 OFFCURVE",
"675 -13 OFFCURVE",
"648 -13 CURVE SMOOTH",
"573 -13 LINE SMOOTH",
"494 -13 OFFCURVE",
"480 -1 OFFCURVE",
"480 87 CURVE SMOOTH",
"480 197 LINE SMOOTH",
"480 284 OFFCURVE",
"451 327 OFFCURVE",
"378 358 CURVE",
"377 358 OFFCURVE",
"376 359 OFFCURVE",
"376 360 CURVE SMOOTH",
"376 361 OFFCURVE",
"377 362 OFFCURVE",
"378 362 CURVE"
);
}
);
vertWidth = 1000;
width = 726;
}
);
note = uniFF5B;
unicode = FF5B;
},
{
glyphname = braceright.full;
lastChange = "2017-12-21 08:25:42 +0000";
layers = (
{
layerId = "D3FC7C9C-FD4B-4DFF-A973-70890FA8A2F9";
paths = (
{
closed = 1;
nodes = (
"275 327 OFFCURVE",
"246 284 OFFCURVE",
"246 197 CURVE SMOOTH",
"246 87 LINE SMOOTH",
"246 -1 OFFCURVE",
"232 -13 OFFCURVE",
"153 -13 CURVE SMOOTH",
"78 -13 LINE SMOOTH",
"51 -13 OFFCURVE",
"30 -35 OFFCURVE",
"30 -62 CURVE SMOOTH",
"30 -89 OFFCURVE",
"51 -110 OFFCURVE",
"78 -110 CURVE SMOOTH",
"216 -110 LINE SMOOTH",
"325 -110 OFFCURVE",
"370 -65 OFFCURVE",
"370 50 CURVE SMOOTH",
"370 192 LINE SMOOTH",
"370 275 OFFCURVE",
"396 308 OFFCURVE",
"456 308 CURVE SMOOTH",
"475 308 LINE SMOOTH",
"504 308 OFFCURVE",
"526 331 OFFCURVE",
"526 360 CURVE SMOOTH",
"526 389 OFFCURVE",
"504 412 OFFCURVE",
"475 412 CURVE SMOOTH",
"456 412 LINE SMOOTH",
"396 412 OFFCURVE",
"370 445 OFFCURVE",
"370 528 CURVE SMOOTH",
"370 670 LINE SMOOTH",
"370 785 OFFCURVE",
"325 830 OFFCURVE",
"216 830 CURVE SMOOTH",
"78 830 LINE SMOOTH",
"51 830 OFFCURVE",
"30 809 OFFCURVE",
"30 782 CURVE SMOOTH",
"30 755 OFFCURVE",
"51 733 OFFCURVE",
"78 733 CURVE SMOOTH",
"153 733 LINE SMOOTH",
"232 733 OFFCURVE",
"246 721 OFFCURVE",
"246 633 CURVE SMOOTH",
"246 523 LINE SMOOTH",
"246 436 OFFCURVE",
"275 393 OFFCURVE",
"348 362 CURVE",
"349 362 OFFCURVE",
"350 361 OFFCURVE",
"350 360 CURVE SMOOTH",
"350 359 OFFCURVE",
"349 358 OFFCURVE",
"348 358 CURVE"
);
}
);
vertWidth = 1000;
width = 726;
}
);
note = uniFF5D;
unicode = FF5D;
},
{
glyphname = cornerbracketleft;
lastChange = "2017-12-21 08:25:29 +0000";
layers = (
{
layerId = "D3FC7C9C-FD4B-4DFF-A973-70890FA8A2F9";
paths = (
{
closed = 1;
nodes = (
"301 63 OFFCURVE",
"327 89 OFFCURVE",
"327 120 CURVE SMOOTH",
"327 711 LINE SMOOTH",
"327 717 OFFCURVE",
"330 720 OFFCURVE",
"335 720 CURVE SMOOTH",
"563 720 LINE SMOOTH",
"592 720 OFFCURVE",
"617 744 OFFCURVE",
"617 773 CURVE SMOOTH",
"617 802 OFFCURVE",
"592 827 OFFCURVE",
"563 827 CURVE SMOOTH",
"257 827 LINE SMOOTH",
"226 827 OFFCURVE",
"200 801 OFFCURVE",
"200 770 CURVE SMOOTH",
"200 120 LINE SMOOTH",
"200 89 OFFCURVE",
"226 63 OFFCURVE",
"257 63 CURVE SMOOTH",
"270 63 LINE SMOOTH"
);
}
);
vertWidth = 1000;
width = 647;
}
);
note = uni300C;
unicode = 300C;
},
{
glyphname = cornerbracketright;
lastChange = "2017-12-21 08:25:42 +0000";
layers = (
{
layerId = "D3FC7C9C-FD4B-4DFF-A973-70890FA8A2F9";
paths = (
{
closed = 1;
nodes = (
"421 -107 OFFCURVE",
"447 -81 OFFCURVE",
"447 -50 CURVE SMOOTH",
"447 600 LINE SMOOTH",
"447 631 OFFCURVE",
"421 657 OFFCURVE",
"390 657 CURVE SMOOTH",
"377 657 LINE SMOOTH",
"346 657 OFFCURVE",
"320 631 OFFCURVE",
"320 600 CURVE SMOOTH",
"320 9 LINE SMOOTH",
"320 3 OFFCURVE",
"317 0 OFFCURVE",
"312 0 CURVE SMOOTH",
"84 0 LINE SMOOTH",
"55 0 OFFCURVE",
"30 -24 OFFCURVE",
"30 -53 CURVE SMOOTH",
"30 -82 OFFCURVE",
"55 -107 OFFCURVE",
"84 -107 CURVE SMOOTH",
"390 -107 LINE SMOOTH"
);
}
);
vertWidth = 1000;
width = 647;
}
);
note = uni300D;
unicode = 300D;
},
{
glyphname = dblanglebracketleft;
lastChange = "2017-12-21 08:25:29 +0000";
layers = (
{
layerId = "D3FC7C9C-FD4B-4DFF-A973-70890FA8A2F9";
paths = (
{
closed = 1;
nodes = (
"641 -94 OFFCURVE",
"669 -110 OFFCURVE",
"706 -110 CURVE SMOOTH",
"723 -110 LINE SMOOTH",
"748 -110 OFFCURVE",
"764 -82 OFFCURVE",
"752 -61 CURVE SMOOTH",
"517 353 LINE SMOOTH",
"514 358 OFFCURVE",
"514 362 OFFCURVE",
"517 367 CURVE SMOOTH",
"752 781 LINE SMOOTH",
"764 802 OFFCURVE",
"748 830 OFFCURVE",
"723 830 CURVE SMOOTH",
"706 830 LINE SMOOTH",
"669 830 OFFCURVE",
"641 814 OFFCURVE",
"622 781 CURVE SMOOTH",
"411 409 LINE SMOOTH",
"392 376 OFFCURVE",
"392 344 OFFCURVE",
"411 311 CURVE SMOOTH",
"622 -61 LINE SMOOTH"
);
},
{
closed = 1;
nodes = (
"444 -94 OFFCURVE",
"472 -110 OFFCURVE",
"510 -110 CURVE SMOOTH",
"526 -110 LINE SMOOTH",
"551 -110 OFFCURVE",
"567 -82 OFFCURVE",
"555 -61 CURVE SMOOTH",
"321 353 LINE SMOOTH",
"318 358 OFFCURVE",
"318 362 OFFCURVE",
"321 367 CURVE SMOOTH",
"555 781 LINE SMOOTH",
"567 802 OFFCURVE",
"551 830 OFFCURVE",
"526 830 CURVE SMOOTH",
"510 830 LINE SMOOTH",
"472 830 OFFCURVE",
"444 814 OFFCURVE",
"425 781 CURVE SMOOTH",
"214 409 LINE SMOOTH",
"195 376 OFFCURVE",
"195 344 OFFCURVE",
"214 311 CURVE SMOOTH",
"425 -61 LINE SMOOTH"
);
}
);
vertWidth = 1000;
width = 786;
}
);
note = uni300A;
unicode = 300A;
},
{
glyphname = dblanglebracketright;
lastChange = "2017-12-21 08:25:42 +0000";
layers = (
{
layerId = "D3FC7C9C-FD4B-4DFF-A973-70890FA8A2F9";
paths = (
{
closed = 1;
nodes = (
"22 -82 OFFCURVE",
"38 -110 OFFCURVE",
"63 -110 CURVE SMOOTH",
"80 -110 LINE SMOOTH",
"117 -110 OFFCURVE",
"145 -94 OFFCURVE",
"164 -61 CURVE SMOOTH",
"375 311 LINE SMOOTH",
"394 344 OFFCURVE",
"394 376 OFFCURVE",
"375 409 CURVE SMOOTH",
"164 781 LINE SMOOTH",
"145 814 OFFCURVE",
"117 830 OFFCURVE",
"80 830 CURVE SMOOTH",
"63 830 LINE SMOOTH",
"38 830 OFFCURVE",
"22 802 OFFCURVE",
"34 781 CURVE SMOOTH",
"269 367 LINE SMOOTH",
"272 362 OFFCURVE",
"272 358 OFFCURVE",
"269 353 CURVE SMOOTH",
"34 -61 LINE SMOOTH"
);
},
{
closed = 1;
nodes = (
"235 830 OFFCURVE",
"219 802 OFFCURVE",
"231 781 CURVE SMOOTH",
"465 367 LINE SMOOTH",
"468 362 OFFCURVE",
"468 358 OFFCURVE",
"465 353 CURVE SMOOTH",
"231 -61 LINE SMOOTH",
"219 -82 OFFCURVE",
"235 -110 OFFCURVE",
"260 -110 CURVE SMOOTH",
"276 -110 LINE SMOOTH",
"314 -110 OFFCURVE",
"342 -94 OFFCURVE",
"361 -61 CURVE SMOOTH",
"572 311 LINE SMOOTH",
"591 344 OFFCURVE",
"591 376 OFFCURVE",
"572 409 CURVE SMOOTH",
"361 781 LINE SMOOTH",
"342 814 OFFCURVE",
"314 830 OFFCURVE",
"276 830 CURVE SMOOTH",
"260 830 LINE SMOOTH"
);
}
);
vertWidth = 1000;
width = 786;
}
);
note = uni300B;
unicode = 300B;
},
{
glyphname = tortoiseshellbracketleft;
lastChange = "2017-12-21 08:25:29 +0000";
layers = (
{
layerId = "D3FC7C9C-FD4B-4DFF-A973-70890FA8A2F9";
paths = (
{
closed = 1;
nodes = (
"569 -108 OFFCURVE",
"594 -90 OFFCURVE",
"594 -65 CURVE SMOOTH",
"594 -36 OFFCURVE",
"573 -9 OFFCURVE",
"545 -1 CURVE SMOOTH",
"332 62 LINE",
"327 63 OFFCURVE",
"324 67 OFFCURVE",
"324 73 CURVE SMOOTH",
"324 647 LINE SMOOTH",
"324 653 OFFCURVE",
"327 657 OFFCURVE",
"332 658 CURVE",
"545 721 LINE SMOOTH",
"573 729 OFFCURVE",
"594 756 OFFCURVE",
"594 785 CURVE SMOOTH",
"594 810 OFFCURVE",
"569 828 OFFCURVE",
"545 821 CURVE SMOOTH",
"255 737 LINE SMOOTH",
"223 728 OFFCURVE",
"200 698 OFFCURVE",
"200 665 CURVE SMOOTH",
"200 55 LINE SMOOTH",
"200 22 OFFCURVE",
"223 -8 OFFCURVE",
"255 -17 CURVE SMOOTH",
"545 -101 LINE SMOOTH"
);
}
);
vertWidth = 1000;
width = 624;
}
);
note = uni3014;
unicode = 3014;
},
{
glyphname = tortoiseshellbracketright;
lastChange = "2017-12-21 08:25:42 +0000";
layers = (
{
layerId = "D3FC7C9C-FD4B-4DFF-A973-70890FA8A2F9";
paths = (
{
closed = 1;
nodes = (
"51 -9 OFFCURVE",
"30 -36 OFFCURVE",
"30 -65 CURVE SMOOTH",
"30 -90 OFFCURVE",
"55 -108 OFFCURVE",
"79 -101 CURVE SMOOTH",
"369 -17 LINE SMOOTH",
"401 -8 OFFCURVE",
"424 22 OFFCURVE",
"424 55 CURVE SMOOTH",
"424 665 LINE SMOOTH",
"424 698 OFFCURVE",
"401 728 OFFCURVE",
"369 737 CURVE SMOOTH",
"79 821 LINE SMOOTH",
"55 828 OFFCURVE",
"30 810 OFFCURVE",
"30 785 CURVE SMOOTH",
"30 756 OFFCURVE",
"51 729 OFFCURVE",
"79 721 CURVE SMOOTH",
"292 658 LINE",
"297 657 OFFCURVE",
"300 653 OFFCURVE",
"300 647 CURVE SMOOTH",
"300 73 LINE SMOOTH",
"300 67 OFFCURVE",
"297 63 OFFCURVE",
"292 62 CURVE",
"79 -1 LINE SMOOTH"
);
}
);
vertWidth = 1000;
width = 624;
}
);
note = uni3015;
unicode = 3015;
},
{
glyphname = whitecornerbracketleft;
lastChange = "2017-12-21 08:25:29 +0000";
layers = (
{
layerId = "D3FC7C9C-FD4B-4DFF-A973-70890FA8A2F9";
paths = (
{
closed = 1;
nodes = (
"273 750 OFFCURVE",
"276 753 OFFCURVE",
"282 753 CURVE SMOOTH",
"578 753 LINE SMOOTH",
"583 753 OFFCURVE",
"586 750 OFFCURVE",
"586 745 CURVE SMOOTH",
"586 685 LINE SMOOTH",
"586 680 OFFCURVE",
"583 677 OFFCURVE",
"578 677 CURVE SMOOTH",
"406 677 LINE SMOOTH",
"375 677 OFFCURVE",
"350 651 OFFCURVE",
"350 620 CURVE SMOOTH",
"350 102 LINE SMOOTH",
"350 96 OFFCURVE",
"347 93 OFFCURVE",
"341 93 CURVE SMOOTH",
"282 93 LINE SMOOTH",
"276 93 OFFCURVE",
"273 96 OFFCURVE",
"273 102 CURVE SMOOTH",
"273 745 LINE SMOOTH"
);
},
{
closed = 1;
nodes = (
"366 20 LINE SMOOTH",
"397 20 OFFCURVE",
"423 46 OFFCURVE",
"423 77 CURVE SMOOTH",
"423 595 LINE SMOOTH",
"423 600 OFFCURVE",
"426 603 OFFCURVE",
"432 603 CURVE SMOOTH",
"603 603 LINE SMOOTH",
"634 603 OFFCURVE",
"660 629 OFFCURVE",
"660 660 CURVE SMOOTH",
"660 770 LINE SMOOTH",
"660 801 OFFCURVE",
"634 827 OFFCURVE",
"603 827 CURVE SMOOTH",
"256 827 LINE SMOOTH",
"225 827 OFFCURVE",
"200 801 OFFCURVE",
"200 770 CURVE SMOOTH",
"200 77 LINE SMOOTH",
"200 46 OFFCURVE",
"225 20 OFFCURVE",
"256 20 CURVE SMOOTH",
"273 20 LINE"
);
}
);
vertWidth = 1000;
width = 690;
}
);
note = uni300E;
unicode = 300E;
},
{
glyphname = whitecornerbracketright;
lastChange = "2017-12-21 08:25:42 +0000";
layers = (
{
layerId = "D3FC7C9C-FD4B-4DFF-A973-70890FA8A2F9";
paths = (
{
closed = 1;
nodes = (
"104 40 OFFCURVE",
"107 43 OFFCURVE",
"112 43 CURVE SMOOTH",
"284 43 LINE SMOOTH",
"315 43 OFFCURVE",
"340 69 OFFCURVE",
"340 100 CURVE SMOOTH",
"340 618 LINE SMOOTH",
"340 624 OFFCURVE",
"343 627 OFFCURVE",
"349 627 CURVE SMOOTH",
"409 627 LINE SMOOTH",
"414 627 OFFCURVE",
"417 624 OFFCURVE",
"417 618 CURVE SMOOTH",
"417 -25 LINE SMOOTH",
"417 -30 OFFCURVE",
"414 -33 OFFCURVE",
"409 -33 CURVE SMOOTH",
"112 -33 LINE SMOOTH",
"107 -33 OFFCURVE",
"104 -30 OFFCURVE",
"104 -25 CURVE SMOOTH",
"104 35 LINE SMOOTH"
);
},
{
closed = 1;
nodes = (
"465 -107 OFFCURVE",
"490 -81 OFFCURVE",
"490 -50 CURVE SMOOTH",
"490 643 LINE SMOOTH",
"490 674 OFFCURVE",
"465 700 OFFCURVE",
"434 700 CURVE SMOOTH",
"417 700 LINE",
"324 700 LINE SMOOTH",
"293 700 OFFCURVE",
"267 674 OFFCURVE",
"267 643 CURVE SMOOTH",
"267 125 LINE SMOOTH",
"267 120 OFFCURVE",
"264 117 OFFCURVE",
"258 117 CURVE SMOOTH",
"87 117 LINE SMOOTH",
"56 117 OFFCURVE",
"30 91 OFFCURVE",
"30 60 CURVE SMOOTH",
"30 -50 LINE SMOOTH",
"30 -81 OFFCURVE",
"56 -107 OFFCURVE",
"87 -107 CURVE SMOOTH",
"434 -107 LINE SMOOTH"
);
}
);
vertWidth = 1000;
width = 690;
}
);
note = uni300F;
unicode = 300F;
},
{
glyphname = whitelenticularbracketleft;
lastChange = "2017-12-21 08:25:29 +0000";
layers = (
{
layerId = "D3FC7C9C-FD4B-4DFF-A973-70890FA8A2F9";
paths = (
{
closed = 1;
nodes = (
"273 754 OFFCURVE",
"276 757 OFFCURVE",
"282 757 CURVE SMOOTH",
"441 757 LINE SMOOTH",
"445 757 OFFCURVE",
"448 753 OFFCURVE",
"445 750 CURVE",
"372 629 OFFCURVE",
"336 499 OFFCURVE",
"336 360 CURVE SMOOTH",
"336 221 OFFCURVE",
"372 91 OFFCURVE",
"445 -30 CURVE",
"448 -33 OFFCURVE",
"445 -37 OFFCURVE",
"441 -37 CURVE SMOOTH",
"282 -37 LINE SMOOTH",
"276 -37 OFFCURVE",
"273 -34 OFFCURVE",
"273 -28 CURVE SMOOTH",
"273 748 LINE SMOOTH"
);
},
{
closed = 1;
nodes = (
"554 -110 OFFCURVE",
"568 -84 OFFCURVE",
"553 -67 CURVE",
"461 52 OFFCURVE",
"410 204 OFFCURVE",
"410 360 CURVE SMOOTH",
"410 516 OFFCURVE",
"461 668 OFFCURVE",
"553 787 CURVE",
"568 804 OFFCURVE",
"554 830 OFFCURVE",
"533 830 CURVE SMOOTH",
"256 830 LINE SMOOTH",
"225 830 OFFCURVE",
"200 804 OFFCURVE",
"200 773 CURVE SMOOTH",
"200 -53 LINE SMOOTH",
"200 -84 OFFCURVE",
"225 -110 OFFCURVE",
"256 -110 CURVE SMOOTH",
"533 -110 LINE SMOOTH"
);
}
);
vertWidth = 1000;
width = 589;
}
);
note = uni3016;
unicode = 3016;
},
{
glyphname = whitelenticularbracketright;
lastChange = "2017-12-21 08:25:42 +0000";
layers = (
{
layerId = "D3FC7C9C-FD4B-4DFF-A973-70890FA8A2F9";
paths = (
{
closed = 1;
nodes = (
"217 91 OFFCURVE",
"253 221 OFFCURVE",
"253 360 CURVE SMOOTH",
"253 499 OFFCURVE",
"217 629 OFFCURVE",
"144 750 CURVE",
"141 753 OFFCURVE",
"144 757 OFFCURVE",
"148 757 CURVE SMOOTH",
"308 757 LINE SMOOTH",
"313 757 OFFCURVE",
"316 754 OFFCURVE",
"316 748 CURVE SMOOTH",
"316 -28 LINE SMOOTH",
"316 -34 OFFCURVE",
"313 -37 OFFCURVE",
"308 -37 CURVE SMOOTH",
"148 -37 LINE SMOOTH",
"144 -37 OFFCURVE",
"141 -33 OFFCURVE",
"144 -30 CURVE"
);
},
{
closed = 1;
nodes = (
"364 -110 OFFCURVE",
"389 -84 OFFCURVE",
"389 -53 CURVE SMOOTH",
"389 773 LINE SMOOTH",
"389 804 OFFCURVE",
"364 830 OFFCURVE",
"333 830 CURVE SMOOTH",
"56 830 LINE SMOOTH",
"35 830 OFFCURVE",
"21 804 OFFCURVE",
"36 787 CURVE",
"128 668 OFFCURVE",
"179 516 OFFCURVE",
"179 360 CURVE SMOOTH",
"179 204 OFFCURVE",
"128 52 OFFCURVE",
"36 -67 CURVE",
"21 -84 OFFCURVE",
"35 -110 OFFCURVE",
"56 -110 CURVE SMOOTH",
"333 -110 LINE SMOOTH"
);
}
);
vertWidth = 1000;
width = 589;
}
);
note = uni3017;
unicode = 3017;
},
{
glyphname = bracketleft.full;
lastChange = "2017-12-21 08:25:29 +0000";
layers = (
{
layerId = "D3FC7C9C-FD4B-4DFF-A973-70890FA8A2F9";
paths = (
{
closed = 1;
nodes = (
"572 -110 OFFCURVE",
"594 -89 OFFCURVE",
"594 -62 CURVE SMOOTH",
"594 -35 OFFCURVE",
"572 -13 OFFCURVE",
"545 -13 CURVE SMOOTH",
"332 -13 LINE SMOOTH",
"327 -13 OFFCURVE",
"324 -10 OFFCURVE",
"324 -5 CURVE SMOOTH",
"324 725 LINE SMOOTH",
"324 730 OFFCURVE",
"327 733 OFFCURVE",
"332 733 CURVE SMOOTH",
"545 733 LINE SMOOTH",
"572 733 OFFCURVE",
"594 755 OFFCURVE",
"594 782 CURVE SMOOTH",
"594 809 OFFCURVE",
"572 830 OFFCURVE",
"545 830 CURVE SMOOTH",
"257 830 LINE SMOOTH",
"226 830 OFFCURVE",
"200 804 OFFCURVE",
"200 773 CURVE SMOOTH",
"200 -53 LINE SMOOTH",
"200 -84 OFFCURVE",
"226 -110 OFFCURVE",
"257 -110 CURVE SMOOTH",
"545 -110 LINE SMOOTH"
);
}
);
vertWidth = 1000;
width = 624;
}
);
note = uniFF3B;
unicode = FF3B;
},
{
glyphname = bracketright.full;
lastChange = "2017-12-21 08:25:42 +0000";
layers = (
{
layerId = "D3FC7C9C-FD4B-4DFF-A973-70890FA8A2F9";
paths = (
{
closed = 1;
nodes = (
"52 -13 OFFCURVE",
"30 -35 OFFCURVE",
"30 -62 CURVE SMOOTH",
"30 -89 OFFCURVE",
"52 -110 OFFCURVE",
"79 -110 CURVE SMOOTH",
"367 -110 LINE SMOOTH",
"398 -110 OFFCURVE",
"424 -84 OFFCURVE",
"424 -53 CURVE SMOOTH",
"424 773 LINE SMOOTH",
"424 804 OFFCURVE",
"398 830 OFFCURVE",
"367 830 CURVE SMOOTH",
"79 830 LINE SMOOTH",
"52 830 OFFCURVE",
"30 809 OFFCURVE",
"30 782 CURVE SMOOTH",
"30 755 OFFCURVE",
"52 733 OFFCURVE",
"79 733 CURVE SMOOTH",
"292 733 LINE SMOOTH",
"297 733 OFFCURVE",
"300 730 OFFCURVE",
"300 725 CURVE SMOOTH",
"300 -5 LINE SMOOTH",
"300 -10 OFFCURVE",
"297 -13 OFFCURVE",
"292 -13 CURVE SMOOTH",
"79 -13 LINE SMOOTH"
);
}
);
vertWidth = 1000;
width = 624;
}
);
note = uniFF3D;
unicode = FF3D;
},
{
glyphname = parenleft.full;
lastChange = "2017-12-21 08:25:29 +0000";
layers = (
{
layerId = "D3FC7C9C-FD4B-4DFF-A973-70890FA8A2F9";
paths = (
{
closed = 1;
nodes = (
"508 -110 OFFCURVE",
"518 -85 OFFCURVE",
"503 -70 CURVE SMOOTH",
"388 53 OFFCURVE",
"330 196 OFFCURVE",
"330 360 CURVE SMOOTH",
"330 519 OFFCURVE",
"388 662 OFFCURVE",
"504 789 CURVE",
"519 804 OFFCURVE",
"508 830 OFFCURVE",
"487 830 CURVE SMOOTH",
"480 830 LINE SMOOTH",
"441 830 OFFCURVE",
"408 817 OFFCURVE",
"382 791 CURVE SMOOTH",
"267 674 OFFCURVE",
"200 520 OFFCURVE",
"200 360 CURVE SMOOTH",
"200 197 OFFCURVE",
"266 44 OFFCURVE",
"382 -72 CURVE SMOOTH",
"407 -97 OFFCURVE",
"440 -110 OFFCURVE",
"480 -110 CURVE SMOOTH",
"487 -110 LINE SMOOTH"
);
}
);
vertWidth = 1000;
width = 541;
}
);
note = uniFF08;
unicode = FF08;
},
{
glyphname = parenright.full;
lastChange = "2017-12-21 08:25:42 +0000";
layers = (
{
layerId = "D3FC7C9C-FD4B-4DFF-A973-70890FA8A2F9";
paths = (
{
closed = 1;
nodes = (
"101 -110 OFFCURVE",
"134 -97 OFFCURVE",
"159 -72 CURVE SMOOTH",
"275 44 OFFCURVE",
"341 197 OFFCURVE",
"341 360 CURVE SMOOTH",
"341 520 OFFCURVE",
"274 674 OFFCURVE",
"159 791 CURVE SMOOTH",
"133 817 OFFCURVE",
"100 830 OFFCURVE",
"61 830 CURVE SMOOTH",
"54 830 LINE SMOOTH",
"33 830 OFFCURVE",
"22 804 OFFCURVE",
"37 789 CURVE",
"153 662 OFFCURVE",
"211 519 OFFCURVE",
"211 360 CURVE SMOOTH",
"211 196 OFFCURVE",
"153 53 OFFCURVE",
"38 -70 CURVE SMOOTH",
"23 -85 OFFCURVE",
"33 -110 OFFCURVE",
"54 -110 CURVE SMOOTH",
"61 -110 LINE SMOOTH"
);
}
